# This file uses centimeters as units for non-parametric coordinates.

mtllib SS_Block.mtl
g default
v -0.774665 0.000000 -0.274555
v 0.862146 0.000000 -0.274555
v -0.774665 1.958761 -0.274555
v 0.862146 1.958761 -0.274555
v -0.774665 1.958761 -5.571205
v 0.862146 1.958761 -5.571205
v -0.774665 0.000000 -5.732399
v 0.862146 0.000000 -5.732399
v 0.862146 1.740244 -0.274555
v -0.502700 1.740244 -0.274555
v -0.671220 1.740244 -5.732399
v 0.862146 1.740244 -5.732399
v 1.037589 1.454755 -0.000000
v -0.950108 1.454755 -0.000000
v 1.037589 1.710413 -0.000000
v -0.950108 1.710413 -0.000000
v -0.950108 1.454755 -6.006954
v -0.950108 1.710413 -5.845759
v 1.037589 1.710413 -5.845759
v 1.037589 1.454755 -6.006954
v 0.000000 1.090813 -0.000000
v -0.003303 1.740244 -0.274555
v -0.003303 1.740244 -5.732399
v 0.000000 1.012855 -6.006954
v 0.000000 1.710413 -6.006954
v -0.003303 1.958761 -5.732399
v -0.003303 2.088067 -0.417368
v 0.000000 1.710413 -0.142813
v 1.037589 1.044062 -1.102073
v 0.590182 1.740244 -1.399442
v 0.862146 0.000000 -3.000194
v -0.774665 0.000000 -3.000194
v -0.502700 1.740244 -1.399442
v -0.950108 1.044062 -1.102073
v -0.777033 1.710413 -1.102073
v -0.601590 1.958761 -1.399442
v -0.003303 1.922898 -3.000194
v 0.862146 1.958761 -1.399442
v 1.037589 1.710413 -1.102073
v 1.037589 1.454755 -2.972612
v 0.590182 1.740244 -3.013129
v -0.774665 1.740244 -3.013129
v -0.950108 1.454755 -2.972612
v -0.950108 1.710413 -2.972612
v -0.774665 1.958761 -3.013129
v 0.656057 1.958761 -3.013129
v 0.831500 1.710413 -2.972612
v 1.037589 1.041212 -4.868076
v 0.590182 1.740244 -4.588011
v -0.671220 1.740244 -4.588011
v -0.950108 1.041212 -4.868076
v -0.791346 1.710413 -4.868076
v -0.615903 1.958761 -4.588011
v 0.862146 1.793593 -4.588011
v 1.037589 1.710413 -4.868076
v 0.798347 0.903847 -0.723010
v 0.010529 0.627515 -0.723010
v -0.710862 0.903847 -0.723010
v -0.710862 0.592018 -1.559787
v -0.710862 0.903847 -5.283945
v 0.010529 0.568324 -5.283945
v 0.798347 0.903847 -5.283945
v 0.798347 0.589854 -4.419223
v 0.798347 0.592018 -1.559787
v -0.710862 0.903847 -2.980042
v 0.798347 0.903847 -2.980042
v -0.710862 0.589854 -4.419223
vt 0.350606 0.882838
vt 0.350606 0.882838
vt 0.350606 0.933795
vt 0.350606 0.933795
vt 0.357508 0.973119
vt 0.361176 0.973119
vt 0.363820 0.973119
vt 0.363820 0.973119
vt 0.363215 0.933795
vt 0.363215 0.933795
vt 0.363215 0.882838
vt 0.356903 0.882838
vt 0.360572 0.933795
vt 0.363215 0.882838
vt 0.356903 0.882838
vt 0.360572 0.933795
vt 0.363215 0.933795
vt 0.350576 0.968745
vt 0.350576 0.957833
vt 0.350576 0.964243
vt 0.350576 0.968745
vt 0.364454 0.964243
vt 0.361823 0.956959
vt 0.361823 0.968745
vt 0.364454 0.968745
vt 0.364454 0.968745
vt 0.364454 0.968745
vt 0.364454 0.964243
vt 0.364454 0.956460
vt 0.361823 0.968745
vt 0.361823 0.956959
vt 0.351211 0.973119
vt 0.351211 0.973119
vt 0.361176 0.973119
vt 0.363820 0.973119
vt 0.350606 0.933795
vt 0.351211 0.973119
vt 0.350576 0.968745
vt 0.350576 0.964243
vt 0.353205 0.933795
vt 0.353205 0.933795
vt 0.353122 0.968745
vt 0.353122 0.957010
vt 0.353809 0.973119
vt 0.353809 0.973119
vt 0.353122 0.968745
vt 0.353122 0.957010
vt 0.356933 0.933795
vt 0.356933 0.933795
vt 0.357444 0.968745
vt 0.357444 0.964243
vt 0.357538 0.973119
vt 0.357538 0.973119
vt 0.357444 0.968745
vt 0.357444 0.964243
vt 0.352247 0.949673
vt 0.352247 0.954540
vt 0.354180 0.949048
vt 0.352247 0.954540
vt 0.362784 0.948631
vt 0.362784 0.954540
vt 0.360786 0.949010
vt 0.362784 0.954540
vt 0.354180 0.949048
vt 0.357461 0.954540
vt 0.357461 0.954540
vt 0.360786 0.949010
vn 0.000000 0.000000 1.000000
vn 0.000000 0.000000 1.000000
vn 0.000000 0.000000 1.000000
vn 0.000000 0.000000 1.000000
vn 0.000000 1.000000 0.000000
vn 0.000000 1.000000 0.000000
vn 0.000000 1.000000 0.000000
vn 0.000000 1.000000 0.000000
vn 0.000000 0.000000 -1.000000
vn 0.000000 0.000000 -1.000000
vn 0.000000 0.000000 -1.000000
vn 1.000000 -0.000000 0.000000
vn 1.000000 -0.000000 0.000000
vn 1.000000 -0.000000 0.000000
vn 1.000000 -0.000000 0.000000
vn -1.000000 0.000000 0.000000
vn -1.000000 -0.000000 0.000000
vn -1.000000 0.000000 0.000000
vn -1.000000 0.000000 0.000000
vn 0.000000 0.000000 1.000000
vn 0.000000 0.000000 1.000000
vn 0.000000 0.000000 1.000000
vn 0.000000 0.000000 1.000000
vn -1.000000 0.000000 0.000000
vn -1.000000 0.000000 0.000000
vn -1.000000 0.000000 0.000000
vn -1.000000 0.000000 0.000000
vn 0.000000 0.000000 -1.000000
vn 0.000000 0.000000 -1.000000
vn 0.000000 0.000000 -1.000000
vn 0.000000 0.000000 -1.000000
vn 1.000000 0.000000 0.000000
vn 1.000000 0.000000 0.000000
vn 1.000000 0.000000 0.000000
vn 1.000000 0.000000 0.000000
vn 0.000000 0.741615 0.670825
vn 0.000000 0.741615 0.670825
vn 0.000000 0.741615 0.670825
vn 0.000000 0.741615 0.670825
vn -0.816751 0.576990 0.000000
vn -0.816751 0.576990 0.000000
vn -0.816751 0.576990 0.000000
vn -0.816751 0.576990 0.000000
vn 0.000000 0.741615 -0.670826
vn 0.000000 0.741615 -0.670826
vn 0.000000 0.741615 -0.670826
vn 0.000000 0.741615 -0.670826
vn 0.816750 0.576992 0.000000
vn 0.816750 0.576992 0.000000
vn 0.816750 0.576992 0.000000
vn 0.816750 0.576992 0.000000
vn 0.000000 0.000000 1.000000
vn 0.000000 0.000000 -1.000000
vn 0.000000 0.000000 -1.000000
vn 0.000000 0.000000 -1.000000
vn 0.000000 0.000000 -1.000000
vn 0.000000 0.741615 -0.670826
vn 0.000000 0.741615 -0.670826
vn 0.000000 1.000000 0.000000
vn 0.000000 1.000000 0.000000
vn 0.000000 0.741615 0.670825
vn 0.000000 0.741615 0.670825
vn 0.000000 0.000000 1.000000
vn 0.000000 0.000000 1.000000
vn 1.000000 0.000000 0.000000
vn 1.000000 0.000000 0.000000
vn 1.000000 0.000000 0.000000
vn -1.000000 -0.000000 0.000000
vn -1.000000 -0.000000 0.000000
vn -1.000000 -0.000000 0.000000
vn -1.000000 0.000000 0.000000
vn -1.000000 0.000000 0.000000
vn -1.000000 0.000000 0.000000
vn -1.000000 0.000000 0.000000
vn -0.816751 0.576990 0.000000
vn -0.816751 0.576990 0.000000
vn -0.816751 0.576990 0.000000
vn -0.816751 0.576990 0.000000
vn 0.000000 1.000000 0.000000
vn 0.000000 1.000000 0.000000
vn 0.000000 1.000000 0.000000
vn 0.000000 1.000000 0.000000
vn 0.000000 1.000000 0.000000
vn 0.816750 0.576992 0.000000
vn 0.816750 0.576992 0.000000
vn 0.816750 0.576991 0.000000
vn 0.816750 0.576991 0.000000
vn 1.000000 0.000000 0.000000
vn 1.000000 0.000000 0.000000
vn 1.000000 0.000000 0.000000
vn 1.000000 0.000000 0.000000
vn 1.000000 -0.000000 0.000000
vn -1.000000 0.000000 0.000000
vn -1.000000 0.000000 0.000000
vn -1.000000 0.000000 0.000000
vn -0.816751 0.576990 0.000000
vn -0.816751 0.576990 0.000000
vn 0.000000 1.000000 0.000000
vn 0.000000 1.000000 0.000000
vn 0.816750 0.576992 0.000000
vn 0.816750 0.576992 0.000000
vn 1.000000 0.000000 0.000000
vn 1.000000 0.000000 0.000000
vn 0.282628 -0.805766 0.520444
vn 0.282628 -0.805766 0.520444
vn 0.282628 -0.805766 0.520444
vn 0.282628 -0.805766 0.520445
vn -0.740684 -0.629560 0.234608
vn -0.740684 -0.629560 0.234608
vn -0.740684 -0.629560 0.234608
vn -0.740684 -0.629560 0.234608
vn -0.369310 -0.794036 -0.482822
vn -0.369310 -0.794036 -0.482822
vn -0.369310 -0.794036 -0.482822
vn -0.369310 -0.794036 -0.482822
vn 0.749733 -0.622003 -0.225859
vn 0.749733 -0.622003 -0.225859
vn 0.749733 -0.622003 -0.225859
vn 0.749733 -0.622003 -0.225859
vn -0.307654 -0.803161 0.510178
vn -0.307654 -0.803161 0.510178
vn -0.307654 -0.803161 0.510178
vn -0.307654 -0.803161 0.510178
vn 0.340215 -0.798832 -0.496106
vn 0.340215 -0.798832 -0.496106
vn 0.340215 -0.798832 -0.496106
vn 0.340215 -0.798832 -0.496106
vn 0.740688 -0.629556 0.234607
vn 0.740688 -0.629556 0.234607
vn 0.740688 -0.629557 0.234607
vn 0.740688 -0.629556 0.234607
vn -0.914197 -0.395841 -0.086910
vn -0.914197 -0.395841 -0.086910
vn -0.914197 -0.395841 -0.086910
vn -0.914197 -0.395841 -0.086910
vn 0.914199 -0.395838 -0.086909
vn 0.914199 -0.395838 -0.086909
vn 0.914199 -0.395838 -0.086909
vn 0.914199 -0.395838 -0.086909
vn -0.913350 -0.397816 0.086794
vn -0.913350 -0.397816 0.086794
vn -0.913351 -0.397816 0.086794
vn -0.913350 -0.397816 0.086794
vn 0.913352 -0.397813 0.086793
vn 0.913352 -0.397813 0.086793
vn 0.913352 -0.397813 0.086793
vn 0.913352 -0.397813 0.086793
vn -0.749730 -0.622007 -0.225860
vn -0.749730 -0.622007 -0.225860
vn -0.749730 -0.622007 -0.225860
vn -0.749730 -0.622007 -0.225860
s 1
g pPlane26
usemtl initialShadingGroup
f 1/1/1 2/2/2 9/3/3 22/4/4
s 2
f 37/5/5 54/6/6 6/7/7 26/8/8
s 3
f 23/9/9 12/10/10 8/11/11
s 4
f 31/12/12 8/11/13 12/10/14 49/13/15
s 5
f 7/14/16 32/15/17 50/16/18 11/17/19
s 6
f 28/18/20 21/19/21 13/20/22 15/21/23
s 7
f 17/22/24 51/23/25 52/24/26 18/25/27
s 8
f 25/26/28 19/27/29 20/28/30 24/29/31
s 9
f 55/30/32 48/31/33 20/28/34 19/27/35
s 10
f 4/32/36 27/33/37 28/18/38 15/21/39
s 11
f 53/34/40 5/35/41 18/25/42 52/24/43
s 12
f 26/8/44 6/7/45 19/27/46 25/26/47
s 13
f 6/7/48 54/6/49 55/30/50 19/27/51
s 1
f 1/1/1 22/4/4 10/36/52
s 3
f 11/17/53 23/9/9 8/11/11 7/14/54
s 8
f 18/25/55 25/26/28 24/29/31 17/22/56
s 12
f 5/35/57 26/8/44 25/26/47 18/25/58
s 2
f 53/34/59 37/5/5 26/8/8 5/35/60
s 10
f 28/18/38 27/33/37 3/37/61 16/38/62
s 6
f 14/39/63 21/19/21 28/18/20 16/38/64
s 4
f 2/2/65 31/12/12 30/40/66 9/3/67
s 5
f 33/41/68 32/15/17 1/1/69 10/36/70
s 7
f 35/42/71 34/43/72 14/39/73 16/38/74
s 11
f 3/37/75 36/44/76 35/42/77 16/38/78
s 2
f 3/37/79 27/33/80 37/5/5 36/44/81
f 27/33/80 4/32/82 38/45/83 37/5/5
s 13
f 39/46/84 38/45/85 4/32/86 15/21/87
s 9
f 13/20/88 29/47/89 39/46/90 15/21/91
s 4
f 31/12/12 41/48/92 30/40/66
s 5
f 42/49/93 32/15/17 33/41/68
s 7
f 44/50/94 43/51/95 34/43/72 35/42/71
s 11
f 36/44/76 45/52/96 44/50/97 35/42/77
s 2
f 36/44/81 37/5/5 45/52/98
f 37/5/5 38/45/83 46/53/99
s 13
f 47/54/100 46/53/101 38/45/85 39/46/84
s 9
f 39/46/90 29/47/89 40/55/102 47/54/103
s 4
f 31/12/12 49/13/15 41/48/92
s 5
f 50/16/18 32/15/17 42/49/93
s 7
f 52/24/26 51/23/25 43/51/95 44/50/94
s 11
f 45/52/96 53/34/40 52/24/43 44/50/97
s 2
f 45/52/98 37/5/5 53/34/59
f 37/5/5 46/53/99 54/6/6
s 13
f 55/30/50 54/6/49 46/53/101 47/54/100
s 9
f 47/54/103 40/55/102 48/31/33 55/30/32
s off
f 13/20/104 21/19/105 57/56/106 56/57/107
f 14/39/108 34/43/109 59/58/110 58/59/111
f 17/22/112 24/29/113 61/60/114 60/61/115
f 20/28/116 48/31/117 63/62/118 62/63/119
f 21/19/120 14/39/121 58/59/122 57/56/123
f 24/29/124 20/28/125 62/63/126 61/60/127
f 29/47/128 13/20/129 56/57/130 64/64/131
f 34/43/132 43/51/133 65/65/134 59/58/135
f 40/55/136 29/47/137 64/64/138 66/66/139
f 43/51/140 51/23/141 67/67/142 65/65/143
f 48/31/144 40/55/145 66/66/146 63/62/147
f 51/23/148 17/22/149 60/61/150 67/67/151
